<?xml version="1.0" standalone="no"?>
<!DOCTYPE svg PUBLIC "-//W3C//DTD SVG 20010904//EN"
 "http://www.w3.org/TR/2001/REC-SVG-20010904/DTD/svg10.dtd">
<svg version="1.0" xmlns="http://www.w3.org/2000/svg"
 width="400.000000pt" height="400.000000pt" viewBox="0 0 400.000000 400.000000"
 preserveAspectRatio="xMidYMid meet">
<metadata>
Created by potrace 1.14, written by Peter Selinger 2001-2017
</metadata>
<g transform="translate(0.000000,400.000000) scale(0.100000,-0.100000)"
fill="#000000" stroke="none">
<path d="M1848 3996 c-1 -2 -32 -6 -68 -10 -337 -31 -694 -175 -991 -397 -88
-66 -294 -266 -344 -334 -17 -22 -33 -42 -36 -45 -3 -3 -21 -27 -40 -55 -149
-216 -246 -430 -307 -675 -31 -126 -35 -145 -49 -255 -15 -116 -8 -431 12
-535 3 -14 7 -41 10 -60 31 -184 154 -512 243 -642 16 -24 31 -50 34 -58 15
-41 175 -238 278 -341 101 -102 296 -261 340 -277 8 -3 38 -21 67 -39 58 -37
214 -113 283 -138 183 -65 312 -98 490 -122 88 -12 428 -8 505 5 39 7 84 15
100 18 75 12 260 67 362 108 273 110 469 240 678 450 268 270 442 581 529 946
43 180 51 254 50 465 0 151 -7 261 -19 305 -2 8 -6 31 -9 50 -20 132 -90 347
-165 503 -43 90 -162 293 -180 307 -3 3 -26 32 -51 65 -57 77 -258 278 -335
336 -33 24 -66 49 -73 56 -25 24 -232 144 -313 182 -157 72 -354 135 -504 160
-33 5 -76 13 -95 16 -36 7 -395 16 -402 11z"/>
</g>
</svg>
